<svg id="visual" viewBox="0 0 900 600" width="900" height="600" xmlns="http://www.w3.org/2000/svg" xmlns:xlink="http://www.w3.org/1999/xlink" version="1.1"><path d="M0 452L21.5 451.5C43 451 86 450 128.8 457C171.7 464 214.3 479 257.2 476C300 473 343 452 385.8 435.5C428.7 419 471.3 407 514.2 408.3C557 409.7 600 424.3 642.8 429C685.7 433.7 728.3 428.3 771.2 429.5C814 430.7 857 438.3 878.5 442.2L900 446L900 601L878.5 601C857 601 814 601 771.2 601C728.3 601 685.7 601 642.8 601C600 601 557 601 514.2 601C471.3 601 428.7 601 385.8 601C343 601 300 601 257.2 601C214.3 601 171.7 601 128.8 601C86 601 43 601 21.5 601L0 601Z" fill="#324754" stroke-linecap="round" stroke-linejoin="miter"></path></svg>