<?xml version="1.0" encoding="UTF-8"?>
<!DOCTYPE svg PUBLIC "-//W3C//DTD SVG 1.0//EN" "http://www.w3.org/TR/2001/REC-SVG-20010904/DTD/svg10.dtd">
<!-- Creator: CorelDRAW X8 -->
<svg xmlns="http://www.w3.org/2000/svg" xml:space="preserve" width="307.568mm" height="42.4464mm" version="1.0" style="shape-rendering:geometricPrecision; text-rendering:geometricPrecision; image-rendering:optimizeQuality; fill-rule:evenodd; clip-rule:evenodd"
viewBox="0 0 25137 3469"
 xmlns:xlink="http://www.w3.org/1999/xlink">
 <defs>
  <style type="text/css">
   <![CDATA[
    .str0 {stroke:#FEFEFE;stroke-width:16.346}
    .fil2 {fill:#FEFEFE}
    .fil1 {fill:#EF7F1A}
    .fil0 {fill:#727271;fill-rule:nonzero}
   ]]>
  </style>
 </defs>
 <g id="Layer_x0020_1">
  <metadata id="CorelCorpID_0Corel-Layer"/>
  <path class="fil0" d="M0 3373l322 0 0 -1473 1264 0 0 -292 -1264 0 0 -1168 1312 0 0 -292 -1634 0 0 3225zm2755 0l348 0 466 -1081 1499 0 467 1081 348 0 -1381 -3225 -357 0 -1390 3225zm941 -1373l627 -1477 619 1477 -1246 0zm3717 1373l323 0 0 -2933 579 0c763,0 959,388 959,732 0,732 -776,741 -959,741l-257 0 1094 1460 401 0 -907 -1203c576,-39 950,-444 950,-967 0,-266 -69,-1055 -1281,-1055l-902 0 0 3225zm6825 -2401c-271,-558 -815,-880 -1486,-880 -933,0 -1673,701 -1673,1660 0,985 753,1677 1699,1677 632,0 1172,-335 1473,-897l-384 0c-261,418 -697,605 -1089,605 -767,0 -1377,-592 -1377,-1385 0,-737 545,-1368 1355,-1368 693,0 1011,453 1098,588l384 0zm1408 2401l348 0 467 -1081 1499 0 466 1081 348 0 -1381 -3225 -357 0 -1390 3225zm941 -1373l627 -1477 619 1477 -1246 0zm3491 471c0,562 436,958 998,958 666,0 980,-505 980,-941 0,-697 -575,-854 -919,-950 -401,-113 -636,-213 -636,-566 0,-288 156,-588 553,-588 488,0 593,374 601,579l323 0c-9,-427 -288,-871 -885,-871 -667,0 -915,514 -915,875 0,741 710,772 1124,933 140,52 432,192 432,584 0,344 -240,653 -667,653 -601,0 -658,-535 -667,-666l-322 0zm4001 902l322 0 0 -2933 736 0 0 -292 -1795 0 0 292 737 0 0 2933z"/>
  <path class="fil1" d="M12782 0c958,0 1735,777 1735,1735 0,958 -777,1734 -1735,1734 -958,0 -1734,-776 -1734,-1734 0,-958 776,-1735 1734,-1735z"/>
  <polygon class="fil2 str0" points="12775,992 14828,992 14828,1271 12935,1271 "/>
  <circle class="fil2 str0" cx="12782" cy="1735" r="738"/>
 </g>
</svg>
